HIERARCHY
ROOT Hips
{
     OFFSET 20.89830 94.54850 2.60920
     CHANNELS 6 Xposition Yposition Zposition Zrotation Xrotation Yrotation
     JOINT Spine
     {
          OFFSET -0.00000 11.89050 -0.00000
          CHANNELS 3 Zrotation Xrotation Yrotation
          JOINT Spine1
          {
               OFFSET -0.00000 25.65740 0.12766
               CHANNELS 3 Zrotation Xrotation Yrotation
               JOINT HEad
               {
                    OFFSET -0.00000 8.73416 0.01134
                    CHANNELS 3 Zrotation Xrotation Yrotation
                    End Site
                    {
                         OFFSET -0.29000 12.77420 2.51395
                    }
               }
               JOINT LeftShoulder1
               {
                    OFFSET 8.99000 -0.36225 -0.22000
                    CHANNELS 3 Zrotation Xrotation Yrotation
                    JOINT LeftArm
                    {
                         OFFSET 10.28270 -0.00338 0.32212
                         CHANNELS 3 Zrotation Xrotation Yrotation
                         JOINT LeftForeArm
                         {
                              OFFSET 32.76690 0.09914 -1.42434
                              CHANNELS 3 Zrotation Xrotation Yrotation
                              JOINT LeftHand
                              {
                                   OFFSET 27.56430 0.08536 1.02216
                                   CHANNELS 3 Zrotation Xrotation Yrotation
                                   End Site
                                   {
                                        OFFSET 16.74430 -0.60000 1.50291
                                   }
                              }
                         }
                    }
               }
               JOINT RightShoulder
               {
                    OFFSET -8.99000 -0.36225 -0.22000
                    CHANNELS 3 Zrotation Xrotation Yrotation
                    JOINT RightArm
                    {
                         OFFSET -10.28270 -0.00338 0.32212
                         CHANNELS 3 Zrotation Xrotation Yrotation
                         JOINT RightForeArm
                         {
                              OFFSET -32.89710 0.09914 -1.42434
                              CHANNELS 3 Zrotation Xrotation Yrotation
                              JOINT RightHand
                              {
                                   OFFSET -27.49210 0.08536 1.02216
                                   CHANNELS 3 Zrotation Xrotation Yrotation
                                   End Site
                                   {
                                        OFFSET -16.63120 -0.60000 1.50291
                                   }
                              }
                         }
                    }
               }
          }
     }
     JOINT LeftUpLeg
     {
          OFFSET 8.94580 -8.66707 0.10165
          CHANNELS 3 Zrotation Xrotation Yrotation
          JOINT LeftLeg
          {
               OFFSET 0.00000 -44.42270 1.37270
               CHANNELS 3 Zrotation Xrotation Yrotation
               JOINT LeftFoot
               {
                    OFFSET -0.25355 -42.09240 -1.46059
                    CHANNELS 3 Zrotation Xrotation Yrotation
                    JOINT LeftToes
                    {
                         OFFSET -0.04000 -4.41509 8.49910
                         CHANNELS 3 Zrotation Xrotation Yrotation
                         End Site
                         {
                              OFFSET 0.08000 -0.04745 9.77979
                         }
                    }
               }
          }
     }
     JOINT RightUpLeg
     {
          OFFSET -8.94580 -8.66707 0.10165
          CHANNELS 3 Zrotation Xrotation Yrotation
          JOINT RightLeg
          {
               OFFSET -0.00000 -44.42270 1.37270
               CHANNELS 3 Zrotation Xrotation Yrotation
               JOINT RightFoot
               {
                    OFFSET 0.25355 -42.09240 -1.46059
                    CHANNELS 3 Zrotation Xrotation Yrotation
                    JOINT RightToes
                    {
                         OFFSET 0.04000 -4.41509 8.49910
                         CHANNELS 3 Zrotation Xrotation Yrotation
                         End Site
                         {
                              OFFSET -0.08000 -0.13745 9.77979
                         }
                    }
               }
          }
     }
}
MOTION
Frames: 13
Frame Time: 0.01667
0.02906 93.94650 5.22671 0.82464 12.76850 168.42900 -0.28491 12.44390 -1.96845 -2.93387 24.62580 -2.78441 -3.64365 0.68815 6.61993 -0.00000 -0.00000 0.00000 -125.65700 -59.07840 -101.67500 -51.69970 59.91990 -69.87240 18.56540 7.15470 -13.21120 14.13350 0.67694 1.39845 86.02690 -4.87514 70.70010 13.98060 32.99520 98.37800 18.11450 11.29910 4.23675 19.64450 -6.13196 -8.50696 -17.86880 1.37955 44.69970 -6.86923 18.46400 1.43397 2.56933 -30.64090 -53.14850 -15.58310 -0.74797 4.84052 39.81920 19.39160 -37.85800 -41.01930 -1.19990 2.29872 10.56990 -47.99060 19.22780 
-0.75416 93.98260 4.32391 1.13084 12.78570 166.27901 -0.62254 12.37980 -1.84324 -2.99233 24.48890 -2.61982 -3.94785 0.68800 7.07406 -0.00000 -0.00000 0.00000 -126.89200 -59.00820 -102.87500 -50.64380 60.07810 -70.95640 18.52860 7.19458 -12.99680 14.26880 0.66127 1.28326 85.92780 -4.38541 71.14110 13.97500 32.93830 98.42570 18.01110 11.28390 4.19137 19.76760 -5.71185 -8.98246 -18.46400 2.29231 46.62000 -6.27456 19.67690 1.35783 2.11709 -31.51380 -55.17440 -16.07980 -0.13765 4.97274 40.10130 18.68930 -39.47090 -41.46860 -1.67392 2.14540 10.63850 -48.33440 19.09630 
-1.49105 93.98530 3.42038 1.41718 12.74170 164.17599 -0.89020 12.28700 -1.70976 -3.08328 24.30700 -2.42344 -4.17410 0.59946 7.55396 -0.00000 -0.00000 0.00000 -127.89900 -59.06710 -103.80300 -49.26040 60.14340 -72.27610 18.53630 7.21372 -12.86910 14.36860 0.64201 1.15416 85.88030 -3.85827 71.45450 13.92280 32.90080 98.51350 17.93270 11.28590 4.23977 20.13600 -5.45256 -10.24120 -19.61800 3.07202 49.87770 -5.56354 20.13500 1.20811 1.84808 -32.00540 -56.27420 -16.56090 0.32207 5.04894 40.32010 18.17410 -41.07000 -41.90830 -2.20778 1.96392 10.82990 -48.85600 19.14940 
-2.16371 93.97490 2.53454 1.65870 12.61640 162.22800 -1.09278 12.16000 -1.59364 -3.17218 24.06160 -2.24752 -4.32020 0.45679 8.01372 -0.00000 -0.00000 0.00000 -128.98199 -59.28720 -104.68600 -48.01420 60.24110 -73.39980 18.64680 7.20582 -12.81230 14.44070 0.62559 1.04710 85.86570 -3.39746 71.60460 13.69960 32.89990 98.74670 17.82290 11.29630 4.35583 20.55370 -5.32873 -11.56420 -20.98710 3.71951 53.56190 -4.81508 20.03280 1.02333 1.73084 -32.13200 -56.98910 -17.00270 0.62456 5.05873 40.42180 17.86060 -42.38740 -42.32750 -2.82548 1.74354 10.95760 -49.39030 19.00770 
-2.76456 93.98430 1.68853 1.85425 12.42160 160.54700 -1.27926 12.01260 -1.51299 -3.21175 23.76920 -2.14559 -4.39688 0.31681 8.39084 -0.00000 -0.00000 0.00000 -130.37900 -59.65320 -105.71400 -47.33160 60.48260 -73.93490 18.87450 7.17282 -12.80070 14.49620 0.61336 0.96766 85.86000 -3.05290 71.58400 13.23870 32.92120 99.18830 17.67320 11.30340 4.47168 20.82950 -5.28362 -12.26560 -22.14580 4.36894 56.77070 -4.04824 19.72020 0.82940 1.67367 -32.01160 -57.91570 -17.38770 0.83023 5.04453 40.37110 17.65970 -43.15700 -42.66710 -3.37164 1.54281 10.89590 -49.86520 18.40070 
-3.30154 94.03200 0.89518 2.03224 12.17310 159.20100 -1.48176 11.86560 -1.47978 -3.15894 23.46540 -2.15751 -4.40290 0.21309 8.65176 -0.00000 -0.00000 0.00000 -132.06200 -60.10140 -106.86400 -47.30840 60.87760 -73.79420 19.18000 7.12609 -12.80010 14.52000 0.60418 0.91086 85.85070 -2.81198 71.42460 12.59570 32.91740 99.79490 17.54350 11.30200 4.52637 20.90400 -5.30032 -12.18960 -22.87990 5.12863 59.12660 -3.24626 19.43710 0.63212 1.59587 -31.86320 -59.15350 -17.69390 0.99631 5.06750 40.15920 17.47340 -43.28790 -42.84980 -3.61506 1.45338 10.73070 -50.38840 17.48620 
-3.78946 94.10870 0.15250 2.23544 11.87490 158.19200 -1.68843 11.73400 -1.49077 -2.99711 23.18140 -2.27801 -4.30479 0.12460 8.79358 -0.00000 -0.00000 0.00000 -133.70100 -60.54840 -107.86200 -47.74290 61.32910 -73.16770 19.50850 7.07801 -12.78640 14.51810 0.59491 0.85719 85.81570 -2.64740 71.19270 11.93000 32.85680 100.44100 17.51570 11.29290 4.48250 20.86040 -5.43365 -11.74620 -23.27640 6.01394 60.83550 -2.51394 19.19870 0.45582 1.47161 -31.82580 -60.47160 -17.88050 1.14283 5.17268 39.79210 17.25260 -42.94730 -42.91790 -3.43467 1.52848 10.71090 -51.21400 16.73580 
-4.23799 94.18980 -0.55151 2.49876 11.53350 157.45799 -1.86871 11.62520 -1.52905 -2.74528 22.93810 -2.46306 -4.07080 -0.00118 8.83116 -0.00000 -0.00000 0.00000 -134.84500 -60.95290 -108.34300 -48.27260 61.71440 -72.39760 19.82260 7.03383 -12.76290 14.55960 0.58398 0.78801 85.70630 -2.55502 70.96410 11.37360 32.75240 101.01300 17.62430 11.27780 4.33506 20.84770 -5.71618 -11.47740 -23.58810 6.94270 62.32570 -1.98056 18.94880 0.32850 1.28330 -31.98730 -61.66910 -17.90710 1.27726 5.37550 39.29050 16.99520 -42.42680 -43.00190 -2.90270 1.74563 11.03620 -52.49780 16.53920 
-4.64572 94.25630 -1.23119 2.82802 11.18490 156.90100 -2.00690 11.54330 -1.57825 -2.45308 22.75100 -2.66663 -3.71709 -0.18789 8.80420 -0.00000 -0.00000 0.00000 -135.24400 -61.34210 -108.12600 -48.53670 61.98390 -71.83080 20.09960 6.99608 -12.73570 14.71660 0.57894 0.73801 85.45270 -2.54310 70.77800 10.93080 32.59060 101.47400 17.85160 11.26100 4.12309 20.96210 -6.05674 -11.55840 -24.00000 7.79014 63.79830 -1.59523 18.71100 0.23752 0.97656 -32.49420 -62.64240 -17.77460 1.41445 5.67783 38.69840 16.74950 -41.93120 -43.14430 -2.24558 2.01698 11.71190 -54.06230 16.97710 
-5.00372 94.30500 -1.89809 3.19588 10.89260 156.41100 -2.11409 11.49290 -1.62257 -2.17912 22.63410 -2.84836 -3.30210 -0.40578 8.76664 -0.00000 -0.00000 0.00000 -134.99699 -61.75860 -107.32900 -48.38680 62.17260 -71.61330 20.29760 6.97398 -12.68860 14.97590 0.58970 0.76556 85.13460 -2.68522 70.64410 10.59000 32.46800 101.77800 18.11650 11.24880 3.92810 21.18600 -6.28628 -11.73500 -24.51180 8.49348 65.14210 -1.17894 18.55570 0.14147 0.50883 -33.43450 -63.36940 -17.53890 1.57254 6.10695 38.08250 16.58360 -41.52740 -43.26790 -1.72299 2.23455 12.55490 -55.48970 17.84500 
-5.30791 94.34220 -2.55889 3.55842 10.71760 155.91200 -2.22051 11.47700 -1.64506 -1.96585 22.59500 -2.97456 -2.89473 -0.60147 8.75204 -0.00000 -0.00000 0.00000 -134.40401 -62.22200 -106.24400 -47.93150 62.32620 -71.63850 20.35130 6.98108 -12.60140 15.24360 0.61525 0.87421 84.84480 -2.95708 70.52980 10.33740 32.40490 101.90200 18.35050 11.24520 3.80380 21.43070 -6.30750 -11.74610 -25.04650 9.09526 66.26000 -0.64765 18.50690 0.02047 -0.07705 -34.67790 -63.88490 -17.29470 1.77632 6.71539 37.52080 16.50610 -41.23200 -43.31110 -1.47016 2.33917 13.31860 -56.46850 18.80100 
-5.56830 94.37300 -3.21737 3.87626 10.69700 155.38800 -2.35674 11.49590 -1.63722 -1.83452 22.63420 -3.03411 -2.53771 -0.73572 8.75980 -0.00000 -0.00000 0.00000 -133.68600 -62.73120 -105.09400 -47.34390 62.44300 -71.74180 20.21210 7.02648 -12.46230 15.42760 0.64367 1.00744 84.66820 -3.26370 70.41070 10.18980 32.40280 101.82800 18.51300 11.24750 3.74818 21.62040 -6.17141 -11.68820 -25.63450 9.67681 67.31040 -0.07935 18.51270 -0.10877 -0.65126 -35.92740 -64.17120 -17.14730 2.06161 7.51251 37.07800 16.46070 -41.04930 -43.29590 -1.43457 2.35257 13.83980 -56.98530 19.53790 
-5.80743 94.37550 -3.88820 4.12574 10.83930 154.88100 -2.55147 11.55000 -1.60666 -1.79920 22.74570 -3.03593 -2.23260 -0.76646 8.76093 -0.00000 -0.00000 0.00000 -132.83501 -63.25110 -103.89300 -46.70850 62.47800 -71.86300 19.86840 7.11297 -12.25940 15.49760 0.66028 1.08953 84.62190 -3.49270 70.28000 10.11560 32.42800 101.60600 18.58860 11.25010 3.73122 21.73350 -6.09744 -11.90680 -26.47470 10.43990 68.58490 0.35633 18.47420 -0.20750 -1.07706 -36.93290 -64.12010 -17.18040 2.41312 8.40205 36.80160 16.50680 -40.98470 -43.22530 -1.52412 2.31205 14.09400 -57.20810 19.91180 
